<?xml version="1.0" standalone="no"?>
<!DOCTYPE svg PUBLIC "-//W3C//DTD SVG 20010904//EN"
 "http://www.w3.org/TR/2001/REC-SVG-20010904/DTD/svg10.dtd">
<svg version="1.0" xmlns="http://www.w3.org/2000/svg"
 width="500.000000pt" height="500.000000pt" viewBox="0 0 500.000000 500.000000"
 preserveAspectRatio="xMidYMid meet">
<metadata>
Created by potrace 1.14, written by Peter Selinger 2001-2017
</metadata>
<g transform="translate(0.000000,500.000000) scale(0.100000,-0.100000)"
fill="#000000" stroke="none">
<path d="M2240 4194 c-200 -177 -380 -329 -461 -389 -14 -11 -89 -67 -165
-124 -263 -199 -559 -399 -719 -489 -128 -71 -348 -177 -388 -187 -15 -4 -26
-12 -25 -17 2 -5 49 -28 104 -52 139 -59 359 -175 479 -253 361 -236 913 -658
1174 -900 l84 -77 -6 214 c-6 247 -20 340 -78 515 -56 169 -125 289 -228 397
-46 48 -105 102 -132 120 -27 17 -46 35 -43 40 3 5 24 21 47 35 193 122 355
408 413 728 14 80 34 505 23 505 -3 0 -38 -30 -79 -66z"/>
<path d="M2350 4091 c0 -358 67 -622 215 -853 50 -77 163 -194 227 -234 21
-13 38 -28 38 -33 0 -5 -21 -23 -47 -40 -57 -36 -156 -136 -206 -208 -85 -122
-157 -300 -197 -488 -17 -78 -23 -150 -27 -325 l-5 -225 23 21 c13 11 67 58
119 105 269 241 546 456 925 719 279 193 547 344 738 415 26 10 47 21 47 25 0
3 -35 21 -77 40 -111 47 -334 161 -431 219 -156 93 -579 394 -822 585 -153
120 -282 229 -412 349 l-108 99 0 -171z"/>
<path d="M2040 1279 l0 -201 29 -29 c23 -23 38 -29 71 -29 41 0 41 1 38 32 -2
24 -9 34 -23 36 -43 8 -45 16 -45 208 l0 184 -35 0 -35 0 0 -201z"/>
<path d="M3990 1285 c0 -194 0 -196 -22 -204 -30 -11 -146 -11 -176 0 -22 8
-23 13 -20 91 l3 83 88 3 88 3 -3 37 -3 37 -65 3 c-79 4 -128 -9 -161 -44 -22
-23 -24 -34 -24 -118 0 -106 12 -137 60 -161 43 -20 193 -20 240 -1 60 25 63
39 67 261 l3 200 -37 3 -38 3 0 -196z"/>
<path d="M327 1454 c-4 -4 -7 -103 -7 -221 l0 -213 35 0 35 0 -2 218 -3 217
-25 3 c-14 2 -29 0 -33 -4z"/>
<path d="M580 1365 c-74 -74 -101 -95 -122 -95 -25 0 -28 -3 -28 -35 0 -31 3
-35 26 -35 20 0 50 -23 118 -90 91 -89 93 -90 142 -90 l49 0 -108 107 -108
107 106 106 c58 58 105 109 105 113 0 4 -19 7 -43 7 -40 0 -47 -5 -137 -95z"/>
<path d="M2730 1225 l0 -225 35 0 35 0 0 225 0 225 -35 0 -35 0 0 -225z"/>
<path d="M2991 1355 c-60 -57 -108 -95 -120 -95 -17 0 -21 -6 -21 -35 0 -32 3
-35 28 -35 21 0 48 -21 122 -95 90 -90 97 -95 137 -95 24 0 43 4 43 9 0 5 -47
54 -105 109 -58 54 -105 104 -105 110 0 5 51 58 113 116 l112 106 -53 0 -52 0
-99 -95z"/>
<path d="M2251 1338 c-20 -7 -22 -13 -17 -39 3 -17 6 -74 6 -126 0 -91 1 -96
30 -124 29 -29 31 -30 122 -27 l93 3 0 30 0 30 -75 3 c-41 2 -80 8 -87 14 -9
7 -13 43 -13 123 0 100 -2 113 -18 117 -10 3 -28 1 -41 -4z"/>
<path d="M880 1310 c0 -35 10 -39 125 -42 l80 -3 0 -85 0 -85 -96 -3 c-107 -3
-131 7 -109 47 9 19 20 21 90 21 l80 0 0 35 0 35 -88 0 c-99 0 -125 -12 -148
-66 -19 -44 -8 -89 28 -119 28 -23 37 -25 141 -25 156 1 177 19 177 160 0 86
-15 131 -49 150 -11 5 -67 10 -125 10 l-106 0 0 -30z"/>
<path d="M1274 1322 c-36 -28 -44 -57 -44 -147 0 -86 1 -88 34 -121 l34 -34
126 0 126 0 0 35 0 35 -113 0 c-75 0 -117 4 -125 12 -7 7 -12 40 -12 78 0 38
5 71 12 78 8 8 50 12 125 12 l113 0 0 35 0 35 -127 0 c-106 0 -132 -3 -149
-18z"/>
<path d="M1667 1329 c-32 -19 -47 -65 -47 -148 0 -136 25 -161 165 -161 l86 0
-3 33 -3 32 -85 5 -85 5 0 85 0 85 102 3 c95 3 102 1 108 -18 12 -38 -11 -50
-96 -50 l-79 0 0 -35 0 -35 83 0 c97 0 126 12 150 63 24 47 15 88 -25 122 -28
24 -36 25 -141 25 -62 0 -120 -5 -130 -11z"/>
<path d="M2525 1330 c-3 -6 -5 -89 -4 -185 1 -121 -1 -179 -9 -187 -6 -6 -44
-12 -84 -12 l-73 -1 -3 -37 -3 -38 81 0 c157 0 170 21 170 285 l0 185 -34 0
c-19 0 -38 -5 -41 -10z"/>
<path d="M3313 1326 c-53 -24 -68 -58 -68 -156 0 -100 15 -133 73 -157 46 -19
216 -14 250 7 35 23 52 71 52 150 0 79 -17 127 -52 150 -33 21 -213 25 -255 6z
m222 -156 l0 -85 -47 -9 c-29 -6 -70 -6 -105 0 l-58 9 -3 74 c-2 41 -1 80 2
88 4 11 28 13 108 11 l103 -3 0 -85z"/>
<path d="M4214 1326 c-54 -24 -64 -49 -64 -156 0 -141 30 -170 175 -170 l75 0
0 35 0 35 -78 0 c-47 0 -83 5 -90 12 -7 7 -12 43 -12 90 0 93 6 98 107 98 107
0 137 -16 113 -61 -9 -16 -22 -19 -95 -19 l-85 0 0 -35 0 -35 79 0 c43 0 92 5
109 11 40 14 65 53 65 101 0 44 -22 74 -70 94 -42 18 -188 18 -229 0z"/>
<path d="M4623 1325 c-57 -25 -71 -93 -29 -142 23 -26 30 -28 118 -31 99 -4
121 -13 116 -45 -4 -28 -45 -38 -148 -36 -118 1 -112 3 -108 -33 l3 -33 105
-3 c166 -5 220 23 220 115 0 65 -36 98 -117 108 -34 4 -75 4 -90 1 -32 -7 -59
6 -49 23 5 7 46 11 112 11 l104 0 0 40 0 40 -102 0 c-65 -1 -115 -6 -135 -15z"/>
</g>
</svg>
