<?xml version="1.0" standalone="no"?>
<!DOCTYPE svg PUBLIC "-//W3C//DTD SVG 20010904//EN"
 "http://www.w3.org/TR/2001/REC-SVG-20010904/DTD/svg10.dtd">
<svg version="1.0" xmlns="http://www.w3.org/2000/svg"
 width="2000.000000pt" height="2000.000000pt" viewBox="0 0 2000.000000 2000.000000"
 preserveAspectRatio="xMidYMid meet">
<metadata>
Created by potrace 1.14, written by Peter Selinger 2001-2017
</metadata>
<g transform="translate(0.000000,2000.000000) scale(0.100000,-0.100000)"
fill="#000000" stroke="none">
<path d="M4671 12852 c2 -133 7 -242 11 -242 3 0 7 -12 7 -27 0 -27 5 -56 15
-91 3 -9 7 -28 10 -42 17 -90 39 -157 93 -278 13 -29 23 -55 23 -58 0 -3 5
-10 10 -17 6 -7 28 -40 50 -74 43 -68 74 -106 135 -164 53 -50 131 -109 144
-109 23 0 8 -16 -46 -50 -89 -56 -221 -203 -270 -300 -10 -19 -21 -36 -25 -38
-5 -2 -8 -12 -8 -22 0 -10 -4 -22 -10 -25 -5 -3 -10 -14 -10 -24 0 -10 -7 -24
-15 -31 -9 -7 -14 -15 -11 -17 2 -3 -2 -21 -11 -41 -8 -20 -17 -43 -19 -51 -2
-9 -12 -48 -23 -88 -11 -40 -22 -87 -24 -105 -3 -18 -6 -33 -7 -33 -1 0 -4
-11 -6 -25 -7 -37 -17 -500 -11 -500 3 0 18 12 34 28 108 100 291 259 388 337
28 22 57 46 65 52 192 158 712 532 885 636 150 91 369 205 455 237 19 7 39 17
44 22 6 4 18 8 27 8 9 0 22 6 28 14 9 11 7 15 -13 20 -27 7 -187 80 -291 133
-91 46 -293 161 -305 173 -3 3 -52 37 -110 75 -58 39 -109 74 -115 78 -5 4
-48 35 -95 68 -47 33 -96 68 -110 79 -172 128 -331 248 -356 269 -18 14 -46
37 -65 51 -94 72 -359 301 -432 374 l-39 39 3 -241z"/>
<path d="M4545 13022 c-207 -193 -634 -537 -821 -662 -13 -8 -96 -67 -186
-130 -90 -63 -210 -143 -268 -178 -120 -72 -345 -187 -437 -223 -35 -13 -63
-27 -63 -30 0 -4 12 -10 27 -14 40 -10 314 -144 428 -210 319 -184 985 -683
1281 -960 12 -11 36 -33 54 -50 l32 -30 -5 235 c-4 189 -9 253 -26 330 -41
181 -108 341 -196 465 -47 67 -160 177 -212 207 -18 11 -33 23 -33 26 0 4 20
20 45 35 92 58 219 209 279 332 43 88 76 165 71 165 -3 0 0 12 6 28 13 31 33
109 44 167 5 22 10 47 12 55 6 20 16 441 12 463 -3 13 -11 10 -44 -21z"/>
<path d="M15389 12603 c-1 -5 -2 -217 -3 -471 l-1 -464 -24 -19 c-21 -17 -41
-19 -233 -19 -122 0 -217 4 -228 10 -29 16 -36 62 -35 228 1 130 4 155 18 170
15 15 46 18 220 22 l202 5 1 98 1 99 -221 -4 c-208 -3 -224 -5 -269 -27 -26
-13 -65 -43 -86 -67 -58 -66 -67 -113 -66 -333 2 -179 3 -188 28 -241 34 -71
80 -115 145 -140 48 -18 74 -20 300 -18 236 3 249 4 294 26 59 29 120 97 138
154 11 34 14 143 15 521 l2 477 -99 0 c-54 0 -98 -3 -99 -7z"/>
<path d="M10720 12107 c0 -509 1 -516 74 -590 54 -54 127 -79 212 -75 l59 3 0
90 0 90 -63 5 c-74 6 -92 22 -93 84 0 23 0 220 -1 439 l0 397 -94 0 -94 0 0
-443z"/>
<path d="M12343 11980 l0 -550 99 0 c54 0 98 3 99 8 1 9 1 1052 0 1075 -1 15
-13 17 -99 17 l-99 0 0 -550z"/>
<path d="M12985 12304 l-220 -224 -55 1 c-30 0 -62 0 -71 0 -14 -1 -17 -15
-17 -101 l0 -100 72 0 71 0 224 -225 224 -225 141 0 141 0 -175 171 c-96 95
-223 218 -281 275 l-106 104 111 109 c61 60 188 184 281 275 l170 165 -145 -1
-145 -1 -220 -223z"/>
<path d="M6735 11958 l0 -513 93 -3 92 -3 0 51 c0 27 0 221 0 430 0 209 0 418
0 465 l0 85 -93 0 -93 0 1 -512z"/>
<path d="M7335 12260 l-210 -210 -65 0 -66 0 1 -92 0 -93 66 -3 65 -3 209
-209 210 -210 132 0 132 0 -162 159 c-89 87 -206 202 -259 254 -54 52 -98 98
-98 103 0 5 51 58 113 117 249 242 397 388 397 392 0 3 -57 5 -128 5 l-127 0
-210 -210z"/>
<path d="M13772 12245 c-24 -7 -58 -23 -76 -36 -42 -29 -95 -106 -106 -154 -5
-20 -8 -125 -6 -234 2 -221 7 -241 83 -314 69 -68 107 -76 368 -76 127 0 248
4 271 10 64 16 134 76 168 142 l30 58 0 192 c0 155 -4 202 -18 243 -22 68 -75
127 -138 157 -51 24 -58 25 -293 26 -176 0 -251 -4 -283 -14z m493 -197 c34
-15 38 -38 38 -203 0 -166 -5 -192 -39 -205 -14 -6 -117 -10 -229 -10 -269 0
-249 -17 -252 210 -4 235 -21 220 251 220 135 0 214 -4 231 -12z"/>
<path d="M15950 12248 c-85 -23 -160 -104 -180 -192 -12 -55 -15 -351 -5 -412
16 -89 86 -166 179 -197 40 -14 90 -17 251 -17 l200 0 1 95 0 95 -188 0 c-205
0 -242 8 -254 54 -3 12 -4 98 -2 189 3 144 5 169 21 184 16 16 42 18 235 21
202 2 219 1 242 -17 20 -16 25 -29 25 -65 0 -78 -5 -80 -238 -86 l-202 -5 0
-92 -1 -93 201 0 c247 0 286 9 355 80 111 114 105 304 -11 404 -69 58 -112 66
-368 65 -124 -1 -242 -5 -261 -11z"/>
<path d="M16950 12251 c-118 -36 -186 -141 -168 -259 11 -66 28 -102 70 -142
54 -50 107 -60 324 -60 l193 0 20 -26 c28 -36 27 -79 -4 -109 l-24 -25 -288 0
-288 0 2 -32 c1 -18 2 -64 2 -101 l1 -68 313 3 c282 3 315 5 347 22 67 36 98
66 127 124 71 142 20 310 -118 383 -41 23 -57 24 -259 29 l-215 5 0 30 0 30
263 3 262 2 0 100 0 100 -267 -1 c-148 0 -279 -4 -293 -8z"/>
<path d="M8039 12206 c0 -9 0 -36 0 -61 0 -25 0 -58 0 -74 l1 -29 214 0 c225
-1 250 -5 265 -45 5 -12 8 -93 7 -181 -2 -210 16 -196 -248 -196 l-199 0 -24
26 c-18 20 -22 33 -19 62 8 65 13 67 224 70 l190 3 0 90 0 90 -207 -3 c-191
-3 -211 -5 -248 -25 -112 -60 -167 -203 -126 -327 17 -49 73 -111 125 -139 38
-20 58 -22 264 -25 271 -4 308 3 376 79 62 69 71 109 70 324 -1 199 -7 223
-64 289 -68 77 -85 81 -357 84 -215 3 -243 1 -244 -12z"/>
<path d="M8994 12196 c-57 -26 -98 -71 -126 -136 -17 -38 -20 -71 -22 -220 -1
-96 3 -191 8 -210 25 -90 99 -160 187 -179 65 -14 569 -15 570 -1 0 6 1 26 1
45 0 19 -1 58 -1 85 l-1 50 -269 0 c-232 0 -272 2 -285 16 -20 20 -19 6 -21
174 -2 118 4 182 18 202 1 1 128 5 281 8 l279 5 -1 68 c0 37 -1 78 -1 92 l-1
26 -283 -1 c-274 -1 -285 -2 -333 -24z"/>
<path d="M9928 12210 c-47 -14 -94 -48 -121 -87 -50 -72 -55 -97 -56 -283 -2
-211 8 -258 71 -321 68 -68 86 -73 318 -77 l205 -4 0 89 0 88 -189 5 c-242 6
-226 -8 -226 211 0 150 1 159 23 184 l22 27 187 0 c102 0 197 -3 210 -8 33
-10 47 -33 48 -76 0 -28 -6 -41 -26 -57 -25 -19 -40 -21 -204 -21 l-178 0 -4
-47 c-1 -27 -2 -67 0 -90 l3 -43 190 1 c223 1 261 9 324 75 138 141 74 386
-112 433 -49 13 -445 13 -485 1z"/>
<path d="M11182 11923 c3 -264 5 -302 21 -334 26 -53 65 -93 117 -120 42 -22
57 -24 253 -27 l208 -4 -2 95 -1 96 -187 1 c-169 0 -188 2 -205 19 -18 18 -19
38 -19 295 l0 276 -94 0 -94 0 3 -297z"/>
<path d="M11851 11779 c-1 -282 -5 -447 -11 -459 -15 -28 -36 -31 -226 -33
l-169 -2 -2 -93 -2 -94 207 4 c231 4 249 8 323 82 66 67 68 84 69 589 l0 447
-95 0 -94 0 0 -441z"/>
</g>
</svg>
